# xmcd
#
# Track frame offsets:
# 150
# 18530
# 36513
# 51828
# 83674
# 103775
# 122789
# 144186
# 172592
# 186619
# 199698
# 212805
# 242143
# 259648
# 274490
# 290781
#
# Disc length: 4080 seconds
#
#
# Revision: 1
# Processed by: cddbd v1.5.1PL0 Copyright (c) Steve Scherf et al.
# Submitted via: FreeRIP 2.80 
#
DISCID=f40fee10
DTITLE=SOCRATES - waiting for something+Breaking Through
DYEAR=1980
DGENRE=Blues
TTITLE0=MR WC
TTITLE1=MOST PEOPLE I KNOW
TTITLE2=ENDLESS
TTITLE3=MOUNTAINS
TTITLE4=LADY
TTITLE5=THREW THE DICE
TTITLE6=VALLEY OF GLORY
TTITLE7=MAGIC MIRROR
TTITLE8=don't you like
TTITLE9=falling angel
TTITLE10=born again
TTITLE11=hot blooded blues
TTITLE12=more and more
TTITLE13=jenny and penny
TTITLE14=master of disaster
TTITLE15=breaking through
EXTD=submited by PiniosBlues@gmail.com
EXTT0=
EXTT1=
EXTT2=
EXTT3=
EXTT4=
EXTT5=
EXTT6=
EXTT7=
EXTT8=
EXTT9=
EXTT10=
EXTT11=
EXTT12=
EXTT13=
EXTT14=
EXTT15=
PLAYORDER=
